<?xml version="1.0" encoding="iso-8859-1"?>
<!-- Uploaded to: SVG Repo, www.svgrepo.com, Generator: SVG Repo Mixer Tools -->
<svg height="800px" width="800px" version="1.1" id="Layer_1" xmlns="http://www.w3.org/2000/svg" xmlns:xlink="http://www.w3.org/1999/xlink" 
	 viewBox="0 0 512 512" xml:space="preserve">
<g>
	<path style="fill:#F6BB42;" d="M256.012,239.445L128.275,460.684c37.595,21.688,81.212,34.094,127.736,34.109
		c46.517-0.016,90.143-12.422,127.736-34.109L256.012,239.445z"/>
	<path style="fill:#F6BB42;" d="M256.59,238.445H512c-0.109-94.485-51.423-176.987-127.689-221.237L256.59,238.445z"/>
	<path style="fill:#F6BB42;" d="M255.434,238.445L127.697,17.208C51.438,61.458,0.125,143.958,0,238.445H255.434z"/>
</g>
<path style="fill:#FFCE54;" d="M181.339,239.445c0-41.235,33.43-74.673,74.673-74.673c41.235,0,74.673,33.438,74.673,74.673
	s-33.438,74.674-74.673,74.674C214.769,314.118,181.339,280.68,181.339,239.445z"/>
</svg>